<svg width="256" height="174" viewBox="0 0 256 174" fill="none" xmlns="http://www.w3.org/2000/svg">
<path d="M69.192 149.09C70.3661 149.09 71.4925 148.623 72.3226 147.793L102.492 117.619L124.869 139.996C125.699 140.827 126.826 141.294 128 141.294C129.174 141.294 130.3 140.827 131.13 139.996L153.508 117.619L183.677 147.793C184.507 148.623 185.634 149.09 186.808 149.09C187.981 149.09 189.108 148.623 189.938 147.793L230.697 107.029C236.978 100.75 240.439 92.4007 240.439 83.5187C240.439 74.6371 236.98 66.2871 230.697 60.0087C224.419 53.728 216.069 50.2685 207.187 50.2685C201.094 50.2685 195.268 51.9335 190.172 54.984C188.589 48.1348 185.173 41.6247 179.845 36.2973C172.503 28.9527 162.739 24.9098 152.357 24.9098C143.387 24.9098 134.881 27.9258 127.999 33.4826C121.116 27.9261 112.61 24.9098 103.639 24.9098C93.255 24.9098 83.4912 28.953 76.1488 36.2973C70.9341 41.512 67.4227 47.9572 65.8013 54.9687C60.7098 51.9268 54.896 50.2685 48.8118 50.2685C39.9302 50.2685 31.5802 53.728 25.2995 60.0087C19.0189 66.2874 15.5594 74.6371 15.5594 83.5187C15.5594 92.4007 19.0189 100.75 25.2995 107.029L66.0608 147.793C66.8915 148.623 68.0182 149.09 69.192 149.09ZM224.436 66.2701C229.046 70.8775 231.584 77.0048 231.584 83.5191C231.584 90.0356 229.046 96.1607 224.436 100.768L186.808 138.401L159.769 111.358L179.846 91.2787C187.074 84.0509 190.814 74.6611 191.149 65.1719C195.595 61.2759 201.22 59.1248 207.187 59.1248C213.704 59.1248 219.827 61.6627 224.436 66.2701ZM82.4109 42.5591C88.0819 36.888 95.6211 33.7658 103.64 33.7658C111.659 33.7658 119.198 36.8877 124.869 42.5591C126.532 44.2218 129.472 44.2196 131.13 42.5591C136.799 36.888 144.338 33.7658 152.357 33.7658C160.374 33.7658 167.916 36.8877 173.585 42.5591C185.29 54.2624 185.29 73.3101 173.585 85.0176L150.377 108.228L128 130.604L82.4131 85.0173C76.7421 79.3463 73.6179 71.8048 73.6179 63.7859C73.6179 55.7671 76.7398 48.2301 82.4109 42.5591ZM24.4157 83.5191C24.4157 77.0048 26.9539 70.8775 31.5635 66.2701C36.1709 61.6627 42.296 59.1245 48.8125 59.1245C54.769 59.1245 60.3859 61.2669 64.8291 65.1543C65.1706 75.0218 69.1315 84.2583 76.1494 91.2784L96.2285 111.357L69.192 138.401L31.5613 100.768C26.9539 96.1607 24.4157 90.0356 24.4157 83.5191Z" fill="#A58200"/>
</svg>
